<svg width="24" height="24" viewBox="0 0 24 24" fill="none" xmlns="http://www.w3.org/2000/svg">
<path fill-rule="evenodd" clip-rule="evenodd" d="M16.3341 2.75H7.66512C4.64412 2.75 2.75012 4.889 2.75012 7.916V16.084C2.75012 19.111 4.63512 21.25 7.66512 21.25H16.3331C19.3641 21.25 21.2501 19.111 21.2501 16.084V7.916C21.2501 4.889 19.3641 2.75 16.3341 2.75Z" stroke="#1A162E" stroke-width="1.5" stroke-linecap="round" stroke-linejoin="round"/>
<path fill-rule="evenodd" clip-rule="evenodd" d="M10.6895 12.0004C10.6895 13.0234 9.86047 13.8524 8.83747 13.8524C7.81447 13.8524 6.98547 13.0234 6.98547 12.0004C6.98547 10.9774 7.81447 10.1484 8.83747 10.1484H8.84047C9.86147 10.1494 10.6895 10.9784 10.6895 12.0004Z" stroke="#1A162E" stroke-width="1.5" stroke-linecap="round" stroke-linejoin="round"/>
<path d="M10.6925 12H17.0105V13.852" stroke="#1A162E" stroke-width="1.5" stroke-linecap="round" stroke-linejoin="round"/>
<path d="M14.1818 13.852V12" stroke="#1A162E" stroke-width="1.5" stroke-linecap="round" stroke-linejoin="round"/>
</svg>
