<svg width="24" height="24" viewBox="0 0 24 24" fill="none" xmlns="http://www.w3.org/2000/svg">
<path d="M11.9992 12.5896C10.0774 12.5896 8.51444 11.0265 8.51444 9.10488C8.51444 7.18306 10.0775 5.62012 11.9992 5.62012C13.921 5.62012 15.484 7.18322 15.484 9.10488C15.484 9.43666 15.215 9.70577 14.8831 9.70577C14.5513 9.70577 14.2822 9.43682 14.2822 9.10488C14.2822 7.84587 13.2581 6.82173 11.999 6.82173C10.74 6.82173 9.7159 7.84587 9.7159 9.10488C9.7159 10.3639 10.74 11.388 11.999 11.388C12.3308 11.388 12.5999 11.657 12.5999 11.9889C12.6001 12.3207 12.331 12.5896 11.9992 12.5896Z" fill="#1A162E"/>
<path d="M11.9992 18.3574C10.0774 18.3574 8.51444 16.7943 8.51444 14.8726C8.51444 14.5408 8.7834 14.2717 9.11533 14.2717C9.44711 14.2717 9.71621 14.5407 9.71621 14.8726C9.71621 16.1316 10.7404 17.1558 11.9994 17.1558C13.2584 17.1558 14.2825 16.1316 14.2825 14.8726C14.2825 13.6136 13.2584 12.5895 11.9994 12.5895C11.6676 12.5895 11.3985 12.3205 11.3985 11.9886C11.3985 11.6568 11.6674 11.3877 11.9994 11.3877C13.9212 11.3877 15.4841 12.9508 15.4841 14.8725C15.484 16.7943 13.921 18.3574 11.9992 18.3574Z" fill="#1A162E"/>
<path d="M12.0001 6.82085C11.6683 6.82085 11.3992 6.5519 11.3992 6.21997V3.99053C11.3992 3.65876 11.6682 3.38965 12.0001 3.38965C12.3319 3.38965 12.601 3.6586 12.601 3.99053V6.22108C12.601 6.55193 12.3319 6.82089 12.0001 6.82089V6.82085Z" fill="#1A162E"/>
<path d="M12.0001 20.612C11.6683 20.612 11.3992 20.343 11.3992 20.0111V17.7806C11.3992 17.4488 11.6682 17.1797 12.0001 17.1797C12.3319 17.1797 12.601 17.4486 12.601 17.7806V20.0111C12.601 20.3429 12.3319 20.612 12.0001 20.612Z" fill="#1A162E"/>
<path d="M12 23C5.93449 23 1 18.0647 1 12C1 5.93528 5.93409 1 12 1C18.0659 1 23 5.9341 23 12C23 18.0659 18.0659 23 12 23ZM12 2.20193C6.59726 2.20193 2.20193 6.59726 2.20193 12C2.20193 17.4027 6.59726 21.7981 12 21.7981C17.4027 21.7981 21.7981 17.402 21.7981 12C21.7981 6.59805 17.4027 2.20193 12 2.20193Z" fill="#1A162E"/>
</svg>
